<svg xmlns="http://www.w3.org/2000/svg" width="38.000000pt" height="38.000000pt" viewBox="0 0 174.25 188.64">
    <defs>
        <style>.cls-1{fill:#18252e;}.cls-2{fill:#039bff;}</style>
    </defs>
    <title>Finsemble Documentation</title>
    <g id="Layer_2" data-name="Layer 2">
        <g id="Layer_2-2" data-name="Layer 2">
            <polygon class="cls-1" points="87.3 188.46 0.17 155.4 0.17 99.77 87.3 132.83 87.3 188.46"/>
            <path class="cls-1" d="M87.45,188.64,0,155.46V99.59l87.44,33.17ZM.33,155.34l86.81,32.94V132.89L.33,100Z"/>
            <polygon class="cls-2" points="92.3 119.63 87.12 121.2 86.77 66.68 0 99.61 87.12 132.66 174.25 99.61 92.45 68.57 92.3 68.63 92.3 119.63"/>
            <polygon class="cls-2" points="174.25 33.06 86.77 66.55 0 33.06 87.12 0 174.25 33.06"/>
            <path class="cls-1" d="M0,88.66,87.12,121.2V66.55L0,33.06Z"/>
        </g>
    </g>
</svg>