<svg xmlns="http://www.w3.org/2000/svg" width="997.17" height="204" viewBox="0 0 997.17 204">
  <defs>
    <style>
      .cls-1 {
        fill: #18252e;
      }

      .cls-2 {
        fill: #039bff;
      }
    </style>
  </defs>
  <title>Layer 1 (2)</title>
  <g id="Layer_2" data-name="Layer 2">
    <g id="Layer_1-2" data-name="Layer 1">
      <path class="cls-1" d="M327.15,124.48H291.8v46H269V57.78h62.42v19H291.8v28.84h35.35Z"/>
      <path class="cls-1" d="M368.17,170.44H345.44V57.78h22.73Z"/>
      <path class="cls-1" d="M466,170.44H443.21L409.83,96.57v73.87H387.1V57.78h22.73l33.38,74v-74H466Z"/>
      <path class="cls-1" d="M531.87,140.87a14.09,14.09,0,0,0-3.5-10.42,40.56,40.56,0,0,0-12.82-7.31q-16.95-6.44-24.37-15a30.25,30.25,0,0,1-7.44-20.4,28.59,28.59,0,0,1,10-22.87,42,42,0,0,1,44.13-4.23,30.27,30.27,0,0,1,12.49,12.35A37,37,0,0,1,554.74,91H532.07a18.71,18.71,0,0,0-3.33-12A11.81,11.81,0,0,0,519,74.87a12.17,12.17,0,0,0-9.28,3.51,13.38,13.38,0,0,0-3.34,9.48,11.75,11.75,0,0,0,3.71,8.38A42.76,42.76,0,0,0,523.26,104a56.38,56.38,0,0,1,23.94,14.62,32.59,32.59,0,0,1,7.47,22.07,29.08,29.08,0,0,1-9.38,23,37,37,0,0,1-25.43,8.27,43.83,43.83,0,0,1-20-4.47A33.57,33.57,0,0,1,486,154.65a37.32,37.32,0,0,1-5.08-19.73h22.83A21.59,21.59,0,0,0,507.57,149a15.52,15.52,0,0,0,12.39,4.4Q531.87,153.48,531.87,140.87Z"/>
      <path class="cls-1" d="M628,121.67H592.63v29.88h41.92v18.89H569.86V57.78h64.53v19H592.63v26.71h35.45Z"/>
      <path class="cls-1" d="M677.31,57.78l21.27,81.45,21.06-81.45h29.71V170.44H726.52V139.93l2.1-47-22.33,77.48H690.83L668.33,93l2.11,47v30.47H647.71V57.78Z"/>
      <path class="cls-1" d="M767.78,170.44V57.78h34.81q17.63,0,26.71,7.85t9.18,23a27.82,27.82,0,0,1-3.81,14.79,22.33,22.33,0,0,1-10.38,9A19.75,19.75,0,0,1,836,121.21a29.78,29.78,0,0,1,4.11,16.12q0,16.38-9,24.77T805,170.44Zm22.73-65.52h11.82q13.35,0,13.35-13.86a15.89,15.89,0,0,0-3.11-11,13.34,13.34,0,0,0-10-3.34H790.48Zm0,16.69v30h14.55a11.39,11.39,0,0,0,9.28-3.81,16.29,16.29,0,0,0,3.17-10.75q0-15.15-11-15.55Z"/>
      <path class="cls-1" d="M879.4,151.55h40.06v18.89h-63V57.78h22.73Z"/>
      <path class="cls-1" d="M990.66,121.67H955.24v29.88h41.93v18.89H932.48V57.78H997v19H955.24v26.71h35.42Z"/>
      <polygon class="cls-1" points="94.41 203.81 0.19 168.06 0.19 107.9 94.41 143.64 94.41 203.81"/>
      <path class="cls-1" d="M94.58,204,0,168.12V107.71l94.58,35.86ZM.35,168l93.88,35.63v-59.9L.35,108.09Z"/>
      <polygon class="cls-2" points="99.81 129.38 94.21 131.07 93.84 72.11 0 107.72 94.21 143.46 188.44 107.72 99.97 74.16 99.81 74.22 99.81 129.38"/>
      <polygon class="cls-2" points="188.44 35.75 93.84 71.97 0 35.75 94.21 0 188.44 35.75"/>
      <path class="cls-1" d="M0,95.94l94.21,35.18V72L0,35.75Z"/>
    </g>
  </g>
</svg>
