<svg xmlns="http://www.w3.org/2000/svg" width="38.000000pt" height="38.000000pt" viewBox="0 0 121.79 137.47"><defs><style>.cls-1{fill:#18252e;}.cls-2{fill:#27cc8d;}</style></defs><title>Finsemble Documentation</title><g id="Layer_2" data-name="Layer 2"><g id="Layer_1-2" data-name="Layer 1"><path class="cls-1" d="M31.06,0c7.79,0,11.73,4.22,11.73,4.22L41.07,6.58A15.32,15.32,0,0,0,31.16,3C23.51,3,18,8.9,18,16.59s5.47,14.14,13.21,14.14a15.24,15.24,0,0,0,10.57-4.36l1.85,2.27A17.38,17.38,0,0,1,31.2,33.69c-9.64,0-16.5-7.55-16.5-17.06S21.75,0,31.06,0Z"/><path class="cls-1" d="M48,0h2.84V15.22c0,1-.08,1.71-.08,1.71h.08a9,9,0,0,1,8.34-5.21c5.17,0,7,3,7,8.13V33.19H63.37V20.6c0-3.29-.5-6.21-4.55-6.21a8,8,0,0,0-7.63,6,9.88,9.88,0,0,0-.33,2.79V33.19H48Z"/><path class="cls-1" d="M82.81,20.22H84v-.54c0-4-2.21-5.42-5.21-5.42a10.22,10.22,0,0,0-5.92,2l-1.33-2.17A12.05,12.05,0,0,1,79,11.71c5,0,7.84,2.79,7.84,8V33.19H84.11V30.9a16.61,16.61,0,0,1,.08-1.75h-.08a7.57,7.57,0,0,1-7,4.55c-3.5,0-7.13-2-7.13-6.21C70,20.39,79.19,20.22,82.81,20.22ZM77.56,31.28c4,0,6.42-4.17,6.42-7.8v-.92H82.77c-3.29,0-9.88.13-9.88,4.75C72.89,29.27,74.43,31.28,77.56,31.28Z"/><path class="cls-1" d="M92.06,12.22h2.79v3.71c0,.92-.08,1.67-.08,1.67h.08c1-3.17,3.34-5.59,6.63-5.59a5.67,5.67,0,0,1,1.13.13v2.79a7.17,7.17,0,0,0-1-.08c-3,0-5.17,2.34-6.09,5.42a13.83,13.83,0,0,0-.58,4.09v8.84H92.06Z"/><path class="cls-1" d="M108.65,14.84h-2.75V12.47h2.79v-6h2.79v6h5.26v2.38h-5.26V25.27c0,4.92,3.13,5.55,4.71,5.55a4.86,4.86,0,0,0,1-.08v2.54a7.47,7.47,0,0,1-1.21.08c-2.42,0-7.3-.79-7.3-7.8Z"/><path class="cls-1" d="M111.9,90.94a27.46,27.46,0,1,0-7.11,7.33,17.8,17.8,0,0,0,12.73,5.16h4.26V93.23h-4.26A7.86,7.86,0,0,1,111.9,90.94ZM71.82,75.88A17.2,17.2,0,1,1,105,82.26c-3.51-4.41-8.12-8.64-15.89-8.64H86.5v10.2h2.61c3.94,0,6.14,2.34,9.22,6.52a17.19,17.19,0,0,1-26.5-14.46Z"/><path class="cls-1" d="M54.41,93.08h-4a1.17,1.17,0,0,1-1.17-1.17V59.85a1.17,1.17,0,0,1,1.17-1.17h4V48.48H33.93v10.2h4a1.17,1.17,0,0,1,1.17,1.17V91.91a1.17,1.17,0,0,1-1.17,1.17h-4v10.2H54.41Z"/><rect class="cls-2" x="14.7" y="48.48" width="4.51" height="88.99"/><rect class="cls-2" y="118.13" width="121.79" height="4.51"/></g></g></svg>